<svg width="166" height="59" viewBox="0 0 166 59" fill="none" xmlns="http://www.w3.org/2000/svg">
<rect x="2" y="2.87195" width="162" height="52.1979" stroke="#161557" stroke-width="4"/>
<path d="M149.827 16.1536L149.771 25.68L140.06 16.1536L149.827 16.1536Z" fill="#C087FF"/>
<path d="M149.827 6.61927L149.771 16.1457L140.06 6.61927L149.827 6.61927Z" fill="#C087FF"/>
<path d="M160.203 6.61927L160.148 16.1457L150.437 6.61927L160.203 6.61927Z" fill="#C087FF"/>
<path d="M160.203 16.1296L160.148 25.656L150.437 16.1296L160.203 16.1296Z" fill="#C087FF"/>
<path d="M22.638 17.24H36.372V21.956H28.02V26.744H35.742V31.442H28.02V41H22.638V17.24ZM41.0689 41V26.222H46.5409V41H41.0689ZM43.8769 23.18C43.0129 23.18 42.2809 22.88 41.6809 22.28C41.0809 21.668 40.7809 20.942 40.7809 20.102C40.7809 19.262 41.0809 18.536 41.6809 17.924C42.2929 17.3 43.0249 16.988 43.8769 16.988C44.4409 16.988 44.9569 17.132 45.4249 17.42C45.8929 17.696 46.2709 18.068 46.5589 18.536C46.8469 19.004 46.9909 19.526 46.9909 20.102C46.9909 20.942 46.6849 21.668 46.0729 22.28C45.4609 22.88 44.7289 23.18 43.8769 23.18ZM58.0148 25.79C58.9868 25.79 59.8748 25.874 60.6788 26.042C61.4828 26.198 62.1548 26.378 62.6948 26.582C63.2468 26.786 63.6008 26.954 63.7568 27.086L61.9748 30.308C61.7468 30.14 61.3208 29.924 60.6968 29.66C60.0848 29.396 59.4008 29.264 58.6448 29.264C58.0688 29.264 57.5828 29.354 57.1868 29.534C56.7908 29.702 56.5928 29.972 56.5928 30.344C56.5928 30.716 56.8088 31.016 57.2408 31.244C57.6848 31.46 58.3208 31.652 59.1488 31.82C59.8688 31.964 60.6008 32.192 61.3448 32.504C62.0888 32.816 62.7068 33.278 63.1988 33.89C63.7028 34.49 63.9548 35.294 63.9548 36.302C63.9548 37.334 63.7328 38.186 63.2888 38.858C62.8448 39.53 62.2567 40.052 61.5248 40.424C60.7928 40.796 60.0008 41.054 59.1488 41.198C58.2968 41.354 57.4688 41.432 56.6647 41.432C55.5368 41.432 54.5528 41.33 53.7128 41.126C52.8848 40.922 52.2127 40.688 51.6967 40.424C51.1807 40.16 50.8207 39.95 50.6167 39.794L52.3808 36.194C52.6928 36.458 53.2027 36.758 53.9107 37.094C54.6188 37.418 55.3688 37.58 56.1607 37.58C56.9288 37.58 57.5228 37.466 57.9428 37.238C58.3628 37.01 58.5728 36.71 58.5728 36.338C58.5728 36.038 58.4708 35.798 58.2668 35.618C58.0628 35.438 57.7748 35.282 57.4028 35.15C57.0308 35.018 56.5808 34.898 56.0528 34.79C55.5728 34.694 55.0627 34.544 54.5228 34.34C53.9828 34.136 53.4728 33.86 52.9927 33.512C52.5127 33.152 52.1227 32.702 51.8227 32.162C51.5227 31.622 51.3727 30.968 51.3727 30.2C51.3727 29.216 51.6907 28.4 52.3267 27.752C52.9628 27.104 53.7847 26.618 54.7927 26.294C55.8008 25.958 56.8748 25.79 58.0148 25.79ZM78.2355 25.79C79.2675 25.79 80.2755 26 81.2595 26.42C82.2435 26.84 83.0535 27.506 83.6895 28.418C84.3255 29.318 84.6435 30.506 84.6435 31.982V41H79.1715V32.882C79.1715 31.826 78.9315 31.034 78.4515 30.506C77.9835 29.966 77.3415 29.696 76.5255 29.696C75.9855 29.696 75.4695 29.84 74.9775 30.128C74.4855 30.404 74.0835 30.8 73.7715 31.316C73.4715 31.82 73.3215 32.402 73.3215 33.062V41H67.8315V16.232H73.3215V28.4C73.4535 28.004 73.7475 27.608 74.2035 27.212C74.6715 26.804 75.2535 26.468 75.9495 26.204C76.6575 25.928 77.4195 25.79 78.2355 25.79Z" fill="#C087FF"/>
<path d="M93.848 41.432C92.42 41.432 91.178 41.084 90.122 40.388C89.066 39.68 88.244 38.738 87.656 37.562C87.08 36.374 86.792 35.06 86.792 33.62C86.792 32.18 87.08 30.872 87.656 29.696C88.244 28.508 89.066 27.56 90.122 26.852C91.178 26.144 92.42 25.79 93.848 25.79C94.796 25.79 95.636 25.94 96.368 26.24C97.1 26.528 97.694 26.876 98.15 27.284C98.606 27.68 98.882 28.046 98.978 28.382V16.232H104.45V41H99.032V38.606C98.804 39.05 98.432 39.494 97.916 39.938C97.4 40.37 96.794 40.724 96.098 41C95.402 41.288 94.652 41.432 93.848 41.432ZM95.522 37.13C96.182 37.13 96.77 36.98 97.286 36.68C97.814 36.38 98.228 35.966 98.528 35.438C98.828 34.898 98.978 34.292 98.978 33.62C98.978 32.948 98.828 32.348 98.528 31.82C98.228 31.28 97.814 30.86 97.286 30.56C96.77 30.248 96.182 30.092 95.522 30.092C94.886 30.092 94.31 30.248 93.794 30.56C93.29 30.86 92.888 31.28 92.588 31.82C92.3 32.348 92.156 32.948 92.156 33.62C92.156 34.292 92.3 34.898 92.588 35.438C92.888 35.966 93.29 36.38 93.794 36.68C94.31 36.98 94.886 37.13 95.522 37.13ZM113.057 34.772C113.093 35.3 113.261 35.768 113.561 36.176C113.861 36.584 114.275 36.908 114.803 37.148C115.343 37.376 115.979 37.49 116.711 37.49C117.407 37.49 118.031 37.418 118.583 37.274C119.147 37.13 119.633 36.95 120.041 36.734C120.461 36.518 120.785 36.296 121.013 36.068L123.137 39.452C122.837 39.776 122.411 40.094 121.859 40.406C121.319 40.706 120.605 40.952 119.717 41.144C118.829 41.336 117.707 41.432 116.351 41.432C114.719 41.432 113.267 41.126 111.995 40.514C110.723 39.902 109.721 39.002 108.989 37.814C108.257 36.626 107.891 35.174 107.891 33.458C107.891 32.018 108.203 30.722 108.827 29.57C109.463 28.406 110.381 27.488 111.581 26.816C112.781 26.132 114.227 25.79 115.919 25.79C117.527 25.79 118.919 26.084 120.095 26.672C121.283 27.26 122.195 28.136 122.831 29.3C123.479 30.452 123.803 31.892 123.803 33.62C123.803 33.716 123.797 33.908 123.785 34.196C123.785 34.484 123.773 34.676 123.749 34.772H113.057ZM118.655 31.91C118.643 31.526 118.541 31.148 118.349 30.776C118.157 30.392 117.869 30.08 117.485 29.84C117.101 29.588 116.609 29.462 116.009 29.462C115.409 29.462 114.899 29.582 114.479 29.822C114.071 30.05 113.759 30.35 113.543 30.722C113.327 31.094 113.207 31.49 113.183 31.91H118.655ZM135.163 36.266L139.159 26.222H144.523L134.371 48.488H128.899L132.319 41L126.145 26.222H131.599L135.163 36.266Z" fill="#161557"/>
</svg>
